<svg xmlns="http://www.w3.org/2000/svg" viewBox="0 0 800 600"><filter id="b"><feGaussianBlur stdDeviation="12" /></filter><path fill="#7e724d" d="M0 0h800v600H0z"/><g filter="url(#b)" transform="translate(1.6 1.6) scale(3.125)" fill-opacity=".5"><ellipse rx="1" ry="1" transform="matrix(-24.12654 -5.13261 9.31614 -43.79178 210.5 159.3)"/><ellipse fill="#f2e6ee" rx="1" ry="1" transform="matrix(4.90757 143.8941 -19.23936 .65617 249.9 74.5)"/><ellipse fill="#2b1500" cx="127" cy="133" rx="110" ry="22"/><ellipse fill="#9dbaa1" rx="1" ry="1" transform="matrix(3.9644 35.47717 -69.39026 7.75401 101.6 16)"/><ellipse fill="#fdffff" rx="1" ry="1" transform="rotate(158.2 36.6 95) scale(20.0391 14.93716)"/><ellipse rx="1" ry="1" transform="rotate(114.1 -40.6 97.3) scale(56.54054 13.0521)"/><path d="M145 126l-29 65 32-14z"/><ellipse fill="#c9b9bb" rx="1" ry="1" transform="matrix(10.27882 5.47291 -16.87233 31.68836 167 161.2)"/><ellipse fill="#946200" rx="1" ry="1" transform="matrix(32.41106 42.77252 -19.40207 14.702 61 87.8)"/><path fill="#633900" d="M235 26l-94 64 69-4z"/></g></svg>