<svg xmlns="http://www.w3.org/2000/svg" viewBox="0 0 800 600"><filter id="b"><feGaussianBlur stdDeviation="12" /></filter><path fill="#a58567" d="M0 0h800v600H0z"/><g filter="url(#b)" transform="translate(1.6 1.6) scale(3.125)" fill-opacity=".5"><path fill="#0a0000" d="M-6.5 20.7l31.2-50L70.5-.7l-31.2 50z"/><ellipse fill="#ded9ce" rx="1" ry="1" transform="rotate(-5.5 644.4 -1008.9) scale(55.76877 38.60921)"/><path fill="#fff" d="M54.5 142h47v44h-47z"/><path fill="#633c13" d="M105.7 135.2l8.2-58.4 156.4 22-8.2 58.4z"/><ellipse fill="#150000" rx="1" ry="1" transform="matrix(48.40554 60.56524 -13.23532 10.57806 38.3 191)"/><ellipse fill="#fdffff" cx="248" cy="19" rx="41" ry="18"/><ellipse fill="#fff" rx="1" ry="1" transform="rotate(-116.5 180.9 20.2) scale(27.22487 24.27344)"/><ellipse fill="#241509" rx="1" ry="1" transform="matrix(-25.89259 -8.73817 6.62065 -19.61804 178 2.3)"/><ellipse fill="#fffff9" rx="1" ry="1" transform="matrix(-.33192 -7.22624 35.30593 -1.62168 110.5 145.6)"/><ellipse fill="#3c1000" rx="1" ry="1" transform="matrix(39.70482 -6.6677 .78365 4.66647 39 144)"/></g></svg>