<svg xmlns="http://www.w3.org/2000/svg" viewBox="0 0 800 600"><filter id="b"><feGaussianBlur stdDeviation="12" /></filter><path fill="#38312a" d="M0 0h800v600H0z"/><g filter="url(#b)" transform="translate(1.6 1.6) scale(3.125)" fill-opacity=".5"><ellipse fill="#e4bb87" rx="1" ry="1" transform="matrix(-52.35614 -5.62305 2.22086 -20.67844 151.3 114.2)"/><ellipse fill="#000002" rx="1" ry="1" transform="matrix(-40.09687 39.46537 -142.61655 -144.8986 246 32.8)"/><path fill="#000009" d="M-16 2l141-18L8 122z"/><path fill="#c0e6bc" d="M105 57l-1-50 26 9z"/><ellipse fill="#806b4c" rx="1" ry="1" transform="matrix(4.44922 -83.43282 26.1317 1.39352 133 171)"/><path fill="#98baa7" d="M93.8 59.3l-35.5-4 10.4 9.3-64.6 69z"/><path fill="#c1765a" d="M271 146.5L132.4 9.9l11.2 44.6L184.2 80z"/><ellipse fill="#060000" rx="1" ry="1" transform="matrix(-5.19094 -19.03487 34.40515 -9.38251 198.8 155.7)"/><ellipse fill="#000015" cx="227" cy="12" rx="64" ry="64"/><ellipse fill="#001" cx="39" cy="27" rx="61" ry="32"/></g></svg>