<svg xmlns="http://www.w3.org/2000/svg" viewBox="0 0 800 600"><filter id="b"><feGaussianBlur stdDeviation="12" /></filter><path fill="#6d6259" d="M0 0h800v600H0z"/><g filter="url(#b)" transform="translate(1.6 1.6) scale(3.125)" fill-opacity=".5"><ellipse fill="#edf6f1" rx="1" ry="1" transform="matrix(37.7232 31.54148 -37.66427 45.04596 39.6 79.7)"/><ellipse rx="1" ry="1" transform="matrix(-12.60815 -55.69962 232.325 -52.58904 153.4 178.6)"/><path fill="#9e9084" d="M-16 13l123 150L271 32z"/><ellipse fill="#fff" rx="1" ry="1" transform="matrix(29.04878 -34.43638 19.76557 16.67323 0 95.7)"/><path fill="#1b0500" d="M191 76h51v116h-51z"/><path fill="#d9a886" d="M238.5 21.5l25.9 53-45 22-25.8-53z"/><ellipse fill="#090000" cx="184" cy="190" rx="147" ry="26"/><ellipse fill="#692027" rx="1" ry="1" transform="rotate(-177.3 46.5 44.8) scale(48.88892 7.94012)"/><ellipse fill="#58585c" rx="1" ry="1" transform="rotate(-16.3 499.4 -513.3) scale(25.01473 37.3679)"/><path fill="#281f28" d="M10 156l96-52-27 62z"/></g></svg>