<svg xmlns="http://www.w3.org/2000/svg" viewBox="0 0 800 600"><filter id="b"><feGaussianBlur stdDeviation="12" /></filter><path fill="#8e7c6b" d="M0 0h800v600H0z"/><g filter="url(#b)" transform="translate(1.6 1.6) scale(3.125)" fill-opacity=".5"><ellipse fill="#fffff3" cx="110" cy="15" rx="117" ry="55"/><ellipse fill="#3f2217" rx="1" ry="1" transform="matrix(133.77075 60.3093 -12.15018 26.95005 108.4 118.3)"/><ellipse fill="#190d05" rx="1" ry="1" transform="rotate(-15.8 454 -764.3) scale(60.45581 30.08851)"/><ellipse fill="#000012" rx="1" ry="1" transform="rotate(37.4 -245.9 203) scale(23.08847 39.32048)"/><path fill="#fff" d="M24.8 160.3L57 140.2l12.2 19.5L37 179.8z"/><ellipse fill="#411604" rx="1" ry="1" transform="rotate(-35.5 159.2 20.2) scale(45.7694 26.99973)"/><ellipse fill="#faecd6" rx="1" ry="1" transform="matrix(-30.00612 -64.34834 21.73464 -10.13503 60.4 20.7)"/><path fill="#fbffff" d="M242 132l-26 22-6-24z"/><ellipse fill="#fff" rx="1" ry="1" transform="rotate(-178 31.8 60.3) scale(5.44873 11.46431)"/><path fill="#61492b" d="M112 21L80-16l36 77z"/></g></svg>