<svg xmlns="http://www.w3.org/2000/svg" viewBox="0 0 800 600"><filter id="b"><feGaussianBlur stdDeviation="12" /></filter><path fill="#e0e0e0" d="M0 0h800v600H0z"/><g filter="url(#b)" transform="translate(1.6 1.6) scale(3.125)" fill-opacity=".5"><ellipse fill="#b9b9b9" rx="1" ry="1" transform="matrix(-51.75703 -6.51831 4.5078 -35.79311 126.5 100.2)"/><path fill="#a2a2a2" d="M90 114h78v18H90z"/><ellipse fill="#fbfbfb" cx="128" cy="101" rx="16" ry="16"/><path fill="#e9e9e9" d="M0 0h84v192H0z"/><ellipse fill="#e9e9e9" cx="203" cy="88" rx="33" ry="255"/><path fill="#e8e8e8" d="M82 132h90v60H82z"/><path fill="#b5b5b5" d="M85 92h26v35H85z"/><ellipse fill="#e5e5e5" cx="141" cy="10" rx="255" ry="58"/><path fill="#b6b6b6" d="M170 77l-34 40 33 5z"/><path fill="#d5d5d5" d="M120.3 89l59.8-15.6-74.7-19.6-18.2 24.5z"/></g></svg>