<svg xmlns="http://www.w3.org/2000/svg" viewBox="0 0 800 600"><filter id="b"><feGaussianBlur stdDeviation="12" /></filter><path fill="#8d8b8c" d="M0 0h800v600H0z"/><g filter="url(#b)" transform="translate(1.6 1.6) scale(3.125)" fill-opacity=".5"><ellipse fill="#f7fbff" rx="1" ry="1" transform="rotate(-82.7 97.4 72.1) scale(30.83989 88.92259)"/><ellipse fill="#352b2a" rx="1" ry="1" transform="matrix(6.78554 -26.23775 70.25643 18.16955 81.2 117.7)"/><ellipse fill="#eeeef1" rx="1" ry="1" transform="matrix(-16.91451 30.1413 -18.51005 -10.38736 161.5 84.5)"/><ellipse fill="#fff" cx="140" cy="181" rx="21" ry="18"/><ellipse fill="#595154" rx="1" ry="1" transform="matrix(27.97697 71.1623 -32.10765 12.6229 220.4 176)"/><path fill="#fff" d="M85 18h27v15H85z"/><path fill="#c2c1c6" d="M56 29.3L-1.2 132.5-44 108.7 13.2 5.5z"/><ellipse fill="#38140d" rx="1" ry="1" transform="matrix(-7.9205 -20.51145 12.18507 -4.70526 32.7 99.8)"/><ellipse fill="#616468" rx="1" ry="1" transform="matrix(-8.61995 -32.72984 57.15508 -15.05275 240 14.8)"/><ellipse fill="#635b5a" rx="1" ry="1" transform="matrix(11.63155 3.00812 -14.89639 57.60006 121.9 139.8)"/></g></svg>