<svg xmlns="http://www.w3.org/2000/svg" viewBox="0 0 800 600"><filter id="b"><feGaussianBlur stdDeviation="12" /></filter><path fill="#b3926e" d="M0 0h800v600H0z"/><g filter="url(#b)" transform="translate(1.6 1.6) scale(3.125)" fill-opacity=".5"><ellipse fill="#714515" rx="1" ry="1" transform="matrix(-31.80802 111.18897 -24.95943 -7.14019 235.8 70.1)"/><ellipse fill="#f1ebe5" rx="1" ry="1" transform="matrix(38.38712 -48.66575 19.80207 15.6197 149.8 73.4)"/><ellipse fill="#fff" rx="1" ry="1" transform="matrix(-20.44585 11.4268 -6.98308 -12.49475 177.3 125.4)"/><ellipse fill="#242c47" cx="142" cy="170" rx="56" ry="12"/><ellipse fill="#fff" rx="1" ry="1" transform="matrix(-5.86304 10.94624 -28.95262 -15.50764 96.5 134.9)"/><path fill="#fcffff" d="M75 109.9L50.5 72 69 60l24.5 38z"/><ellipse fill="#7e1700" rx="1" ry="1" transform="rotate(85.5 -36.8 82.4) scale(34.58081 14.88697)"/><ellipse fill="#d9cb9d" cx="13" cy="120" rx="22" ry="255"/><path fill="#b9421d" d="M232 93l-75 14-14-31z"/><path fill="#fff" d="M82 39h32v16H82z"/></g></svg>