<svg xmlns="http://www.w3.org/2000/svg" viewBox="0 0 800 600"><filter id="b"><feGaussianBlur stdDeviation="12" /></filter><path fill="#6f6f6f" d="M0 0h800v600H0z"/><g filter="url(#b)" transform="translate(1.6 1.6) scale(3.125)" fill-opacity=".5"><ellipse fill="#bdbdbd" cx="128" cy="35" rx="84" ry="84"/><path d="M43-5l-59-10 15 222z"/><ellipse cx="253" cy="50" rx="18" ry="90"/><ellipse rx="1" ry="1" transform="matrix(-22.73923 13.58936 -20.08285 -33.60484 14.9 156.4)"/><path d="M166.7 102.9l38-8.8 26.6 115-38 8.8z"/><ellipse fill="#fafafa" rx="1" ry="1" transform="matrix(-8.62227 -71.25058 11.6552 -1.41043 235.4 154)"/><ellipse fill="#141414" cx="118" cy="27" rx="37" ry="22"/><ellipse fill="#d4d4d4" cx="73" cy="78" rx="12" ry="83"/><ellipse fill="#e7e7e7" cx="28" cy="98" rx="13" ry="28"/><ellipse fill="#0a0a0a" rx="1" ry="1" transform="matrix(-6.56467 1.4659 -26.98173 -120.83043 51.6 111.3)"/></g></svg>