<svg xmlns="http://www.w3.org/2000/svg" viewBox="0 0 800 600"><filter id="b"><feGaussianBlur stdDeviation="12" /></filter><path fill="#7a7a78" d="M0 0h800v600H0z"/><g filter="url(#b)" transform="translate(1.6 1.6) scale(3.125)" fill-opacity=".5"><ellipse rx="1" ry="1" transform="matrix(-15.54667 -45.1508 29.75886 -10.2468 83.3 162.8)"/><ellipse fill="#ccb9b3" rx="1" ry="1" transform="matrix(-85.98766 -85.06289 35.40578 -35.7907 130 30)"/><ellipse fill="#08293f" rx="1" ry="1" transform="rotate(-132.8 12.7 13.8) scale(74.79323 39.11946)"/><ellipse fill="#cd9b9e" rx="1" ry="1" transform="matrix(19.49238 -55.9745 26.20896 9.12692 150.3 165.8)"/><path fill="#000314" d="M91 3h11v46H91z"/><ellipse cy="156" rx="9" ry="56"/><ellipse fill="#030806" rx="1" ry="1" transform="matrix(6.84725 35.14524 -28.4368 5.54026 88 165.6)"/><ellipse fill="#041c2b" rx="1" ry="1" transform="matrix(-57.48993 -34.54332 2.60092 -4.32867 89.6 102)"/><ellipse fill="#dcedf0" cx="117" cy="20" rx="12" ry="55"/><path fill="#17392a" d="M128 0h35v16h-35z"/></g></svg>