<svg xmlns="http://www.w3.org/2000/svg" viewBox="0 0 800 600"><filter id="b"><feGaussianBlur stdDeviation="12" /></filter><path fill="#4e4e4e" d="M0 0h800v600H0z"/><g filter="url(#b)" transform="translate(1.6 1.6) scale(3.125)" fill-opacity=".5"><path fill="#fff" d="M75 0h148v22H75zm29.4 51l78.9 13.7 14-26.9-7.2-5z"/><ellipse cx="14" cy="169" rx="32" ry="89"/><ellipse fill="#0d0d0d" rx="1" ry="1" transform="matrix(-60.28672 25.37859 -13.9356 -33.10395 204.3 94)"/><path fill="#dadada" d="M122 84h22v43h-22z"/><path fill="#fff" d="M48 53h15v26H48z"/><ellipse fill="#cacaca" rx="1" ry="1" transform="matrix(-18.64678 15.04606 -7.35114 -9.11037 14.4 23.7)"/><ellipse fill="#090909" rx="1" ry="1" transform="matrix(-28.1515 17.18375 -13.76705 -22.55405 94 74.6)"/><path fill="#fdfdfd" d="M69.9 31.9l25 22.6 11.3-28.3-.4 3.7z"/><ellipse fill="#8b8b8b" rx="1" ry="1" transform="matrix(44.96775 13.66687 -8.3904 27.60672 94.5 173)"/></g></svg>