<svg xmlns="http://www.w3.org/2000/svg" viewBox="0 0 800 600"><filter id="b"><feGaussianBlur stdDeviation="12" /></filter><path fill="#7e724d" d="M0 0h800v600H0z"/><g filter="url(#b)" transform="translate(1.6 1.6) scale(3.125)" fill-opacity=".5"><ellipse fill="#f4e9f0" rx="1" ry="1" transform="matrix(9.29854 154.05326 -23.35843 1.4099 255 85.4)"/><ellipse rx="1" ry="1" transform="matrix(7.11883 -48.73474 26.78421 3.91245 209 164.2)"/><ellipse fill="#221000" rx="1" ry="1" transform="rotate(-99 108 22.4) scale(22.66511 83.50563)"/><ellipse fill="#9db691" cx="118" cy="25" rx="87" ry="34"/><path fill="#faffff" d="M85 145.8l40.7 25.4-10.6 17-40.8-25.4z"/><path d="M26.8 207l21.1-35.5 26.7-30.3-49.8 5z"/><ellipse fill="#935d00" rx="1" ry="1" transform="matrix(-34.04405 -44.36707 15.92268 -12.2179 64.7 87)"/><path fill="#000217" d="M155.6 119l16.3 9.7-49.5 82.3-16.3-9.7z"/><path fill="#fae2e2" d="M149.3 149.5l-3.2 33.1 53.5-10.7-1 10.3z"/><ellipse fill="#987c13" rx="1" ry="1" transform="matrix(16.43534 41.30213 -50.20326 19.97737 179.2 74)"/></g></svg>