<svg xmlns="http://www.w3.org/2000/svg" viewBox="0 0 800 600"><filter id="c"><feGaussianBlur stdDeviation="55" /></filter><path fill="#7e724d" d="M0 0h800v600H0z"/><g filter='url(#c)' fill-opacity='.5'><ellipse fill="#f3e8ef" fill-opacity=".5" rx="1" ry="1" transform="matrix(20.41602 502.2001 -75.82533 3.08254 798.4 225.3)"/><ellipse fill="#1d0e01" fill-opacity=".5" rx="1" ry="1" transform="matrix(-254.59415 -27.20827 8.9346 -83.60323 479.8 427.8)"/><path fill-opacity=".5" d="M620.3 370.3h109.4v231.3H620.3z"/><ellipse fill="#060000" fill-opacity=".5" rx="1" ry="1" transform="matrix(71.78007 -119.1546 44.08056 26.55462 145.2 481.1)"/><ellipse fill="#a2bc9a" fill-opacity=".5" rx="1" ry="1" transform="rotate(112.1 124.8 113.9) scale(157.09703 180.9105)"/><ellipse fill="#fff" fill-opacity=".5" rx="1" ry="1" transform="matrix(-27.41175 -35.13473 44.82165 -34.9694 343.8 528.9)"/><ellipse fill="#d5c5c3" fill-opacity=".5" rx="1" ry="1" transform="matrix(-60.17613 109.96994 -28.45132 -15.5687 521 508.4)"/><ellipse fill="#946000" fill-opacity=".5" rx="1" ry="1" transform="matrix(58.298 -41.71221 101.45784 141.79994 202.8 282)"/><path fill="#8c6700" fill-opacity=".5" d="M273.4 257.8l443.8-128.1 6.2 196.9z"/><path fill-opacity=".5" d="M429.1 481L356 601.4 469.4 568l-21-157.8z"/></g></svg>