<svg xmlns="http://www.w3.org/2000/svg" viewBox="0 0 800 600"><filter id="c"><feGaussianBlur stdDeviation="55" /></filter><path fill="#8d8b8c" d="M0 0h800v600H0z"/><g filter='url(#c)' fill-opacity='.5'><ellipse fill="#f4f8ff" fill-opacity=".5" rx="1" ry="1" transform="matrix(-17.24712 99.83626 -201.15637 -34.75058 106.2 510.3)"/><ellipse fill="#3c3230" fill-opacity=".5" rx="1" ry="1" transform="rotate(106.2 -8.3 277.1) scale(97.47862 223.5778)"/><ellipse fill="#edecef" fill-opacity=".5" rx="1" ry="1" transform="rotate(-153.5 283.3 74.4) scale(73.39142 100.01517)"/><ellipse fill="#fff" fill-opacity=".5" rx="1" ry="1" transform="matrix(60.01893 25.42919 -21.00644 49.58019 440.3 567.4)"/><ellipse fill="#5d5656" fill-opacity=".5" rx="1" ry="1" transform="matrix(-91.29325 -13.9245 42.77759 -280.46292 640.5 511)"/><ellipse fill="#bec3c5" fill-opacity=".5" rx="1" ry="1" transform="matrix(-7.22027 -54.69141 239.2277 -31.58246 116 113.7)"/><path fill="#f9ffff" fill-opacity=".5" d="M7.8 217.2l46.9 325-103.1 15.6z"/><path fill="#220200" fill-opacity=".5" d="M76.6 261h56.2v134.3H76.6z"/><ellipse fill="#616468" fill-opacity=".5" rx="1" ry="1" transform="matrix(-16.34701 -94.27786 185.20375 -32.11282 750 58)"/><path fill="#fff" fill-opacity=".5" d="M309 540.8l-71.6-22 19.1-62.7 71.8 22z"/></g></svg>