<svg xmlns="http://www.w3.org/2000/svg" viewBox="0 0 800 600"><filter id="b"><feGaussianBlur stdDeviation="12" /></filter><path fill="#8d8b8c" d="M0 0h800v600H0z"/><g filter="url(#b)" transform="translate(1.6 1.6) scale(3.125)" fill-opacity=".5"><path fill="#f8fcff" d="M1.1 120l103.4 37.6L79 228l-103.4-37.6z"/><ellipse fill="#352929" rx="1" ry="1" transform="matrix(-72.48856 -18.1816 6.16823 -24.59222 78.7 119)"/><ellipse fill="#ecebee" rx="1" ry="1" transform="matrix(18.16207 12.29665 -19.77139 29.20222 164 84)"/><ellipse fill="#fff" cx="141" cy="182" rx="21" ry="19"/><ellipse fill="#605958" cx="211" cy="172" rx="34" ry="100"/><ellipse fill="#bbc0c2" rx="1" ry="1" transform="rotate(-98.6 38.5 .2) scale(19.01877 73.94971)"/><path fill="#fff" d="M6 65l-22-5 22 79z"/><path fill="#210400" d="M24 83h19v44H24z"/><ellipse fill="#606367" cx="230" cy="20" rx="48" ry="30"/><ellipse fill="#fffff9" rx="1" ry="1" transform="matrix(-14.22628 -5.86365 3.2027 -7.77033 99.8 26.2)"/></g></svg>