<svg xmlns="http://www.w3.org/2000/svg" viewBox="0 0 800 600"><filter id="b"><feGaussianBlur stdDeviation="12" /></filter><path fill="#b3926e" d="M0 0h800v600H0z"/><g filter="url(#b)" transform="translate(1.6 1.6) scale(3.125)" fill-opacity=".5"><ellipse fill="#794d18" cx="229" cy="62" rx="29" ry="109"/><ellipse fill="#eccbb7" cx="162" cy="86" rx="58" ry="58"/><path fill="#fefffa" d="M73 137L57 55l69 97z"/><ellipse fill="#3a1d21" cx="153" cy="166" rx="67" ry="10"/><ellipse fill="#811b00" rx="1" ry="1" transform="rotate(173 20.6 57.7) scale(14.84173 36.11346)"/><ellipse fill="#904220" rx="1" ry="1" transform="rotate(12.3 -372.4 1041.1) scale(69.35113 14.45301)"/><ellipse fill="#d8ca9c" rx="1" ry="1" transform="matrix(-22.88294 -.55925 6.18878 -253.22872 11.9 140.1)"/><path fill="#954100" d="M27.4 134.3L89.8 100l23.8 22.8-72.9-14z"/><path fill="#eaffff" d="M136 30h59v20h-59z"/><path fill="#f9ffff" d="M191 121l-18.2 25-17.8-13 18.2-25z"/></g></svg>