<svg xmlns="http://www.w3.org/2000/svg" viewBox="0 0 800 600"><filter id="b"><feGaussianBlur stdDeviation="12" /></filter><path fill="#b3926e" d="M0 0h800v600H0z"/><g filter="url(#b)" transform="translate(1.6 1.6) scale(3.125)" fill-opacity=".5"><ellipse fill="#774c16" cx="230" cy="58" rx="28" ry="115"/><ellipse fill="#eccfb8" rx="1" ry="1" transform="matrix(35.1785 -60.48875 42.66178 24.81085 155.4 93.5)"/><path fill="#f8ffff" d="M38.2 69.8l52.6 2.4-20.2 70.2 63.5 13.3z"/><path fill="#482522" d="M89 155h134v21H89z"/><ellipse fill="#6c0700" rx="1" ry="1" transform="matrix(9.3917 1.1199 -5.8448 49.0159 45.2 95)"/><ellipse fill="#ab4126" rx="1" ry="1" transform="matrix(-38.86258 -6.9499 2.39613 -13.39875 186 97.2)"/><ellipse fill="#d8ca9d" rx="1" ry="1" transform="matrix(-4.09049 -213.03536 26.9999 -.51842 8.1 123)"/><path fill="azure" d="M136 32h55v19h-55z"/><path fill="#b65d01" d="M113 56l-7 76-34-74z"/><path fill="#f3ffff" d="M182.5 103.2l17.8 16-24.8 27.6-17.8-16z"/></g></svg>