<svg xmlns="http://www.w3.org/2000/svg" viewBox="0 0 800 600"><filter id="b"><feGaussianBlur stdDeviation="12" /></filter><path fill="#a58567" d="M0 0h800v600H0z"/><g filter="url(#b)" transform="translate(1.6 1.6) scale(3.125)" fill-opacity=".5"><ellipse fill="#120200" rx="1" ry="1" transform="matrix(28.32733 -24.74777 27.16897 31.09874 30.5 0)"/><ellipse fill="#dddbd4" cx="98" cy="54" rx="56" ry="37"/><path fill="#fff" d="M56 142h43v50H56z"/><ellipse fill="#5d3911" rx="1" ry="1" transform="rotate(-178.1 104 59) scale(107.1055 29.96564)"/><ellipse fill="#180000" rx="1" ry="1" transform="matrix(11.64191 -11.25185 73.3079 75.84925 41.8 191)"/><ellipse fill="#fff" cx="255" cy="18" rx="47" ry="18"/><path fill="#fff" d="M223.7 162.7l42.6 6-6 42.6-42.6-6z"/><ellipse fill="#24150a" rx="1" ry="1" transform="matrix(28.42252 14.5018 -9.53018 18.67848 173.5 0)"/><ellipse fill="#f9e9da" rx="1" ry="1" transform="rotate(3.7 -2247 1945) scale(53.36238 9.74075)"/><path fill="#2c0000" d="M80.5 134l-42 18.6-29.7.2-.4-8.5z"/></g></svg>