<svg xmlns="http://www.w3.org/2000/svg" viewBox="0 0 800 600"><filter id="b"><feGaussianBlur stdDeviation="12" /></filter><path fill="#a58567" d="M0 0h800v600H0z"/><g filter="url(#b)" transform="translate(1.6 1.6) scale(3.125)" fill-opacity=".5"><ellipse fill="#110100" cx="32" rx="39" ry="39"/><ellipse fill="#d8d3ca" rx="1" ry="1" transform="matrix(58.18013 -28.05838 16.13497 33.4565 98 52.2)"/><ellipse fill="#5c3710" rx="1" ry="1" transform="matrix(-102.98073 -2.03674 .57785 -29.217 204.3 120.2)"/><ellipse fill="#fff" cx="78" cy="166" rx="27" ry="27"/><ellipse fill="#431600" cx="3" cy="181" rx="47" ry="47"/><ellipse fill="#feffff" rx="1" ry="1" transform="matrix(-.95884 18.92779 -45.11886 -2.28562 255 19.6)"/><ellipse fill="#fff" rx="1" ry="1" transform="matrix(10.90442 -24.3463 25.4912 11.41721 243.3 191)"/><ellipse fill="#2c1d12" rx="1" ry="1" transform="rotate(-159.4 89.4 -13.6) scale(28.6713 19.42463)"/><path fill="#fff" d="M70.5 144.7l65.3-9.2 1.7 11.8-65.3 9.2z"/><ellipse fill="#ffa33b" rx="1" ry="1" transform="matrix(-20.07166 18.5216 -31.67056 -34.32106 2 104)"/></g></svg>