<svg xmlns="http://www.w3.org/2000/svg" viewBox="0 0 800 600"><filter id="b"><feGaussianBlur stdDeviation="12" /></filter><path fill="#38312a" d="M0 0h800v600H0z"/><g filter="url(#b)" transform="translate(1.6 1.6) scale(3.125)" fill-opacity=".5"><ellipse fill="#ebc08b" rx="1" ry="1" transform="rotate(-175.8 79.4 54.5) scale(55.36376 18.08562)"/><path fill="#000001" d="M131.7-10.8l64.3-60L326.3 68.7l-64.3 60z"/><ellipse fill="#000009" rx="1" ry="1" transform="matrix(-76.73942 85.22776 -32.07542 -28.88083 38.3 26.2)"/><ellipse fill="#a7cca5" rx="1" ry="1" transform="matrix(6.15192 -27.67829 9.40543 2.0905 111 29.5)"/><path fill="#b87456" d="M156 67l86 44L125 5z"/><ellipse fill="#877453" rx="1" ry="1" transform="matrix(-20.51933 5.1541 -23.81312 -94.804 137.3 180)"/><ellipse fill="#97b596" rx="1" ry="1" transform="matrix(-3.74346 -4.02844 52.68247 -48.95558 77.5 64.8)"/><ellipse fill="#161b1c" cx="129" cy="136" rx="6" ry="103"/><ellipse fill="#000017" rx="1" ry="1" transform="matrix(-80.80664 44.84622 -19.5547 -35.23484 22.2 40)"/><ellipse fill="#070100" rx="1" ry="1" transform="matrix(-40.3551 10.56004 -4.12354 -15.75808 200.4 155.6)"/></g></svg>