<svg xmlns="http://www.w3.org/2000/svg" viewBox="0 0 800 600"><filter id="b"><feGaussianBlur stdDeviation="12" /></filter><path fill="#38312a" d="M0 0h800v600H0z"/><g filter="url(#b)" transform="translate(1.6 1.6) scale(3.125)" fill-opacity=".5"><ellipse fill="#ddb37f" rx="1" ry="1" transform="rotate(95 23.3 127.1) scale(21.53093 55.91668)"/><path fill="#000001" d="M271-6L139-1l132 137z"/><ellipse fill="#000008" rx="1" ry="1" transform="matrix(-38.08609 -30.8383 77.07254 -95.18657 42.8 11.2)"/><path fill="#7f9c78" d="M113 11l-88 97 140-86z"/><ellipse fill="#7e6b4d" cx="134" cy="190" rx="29" ry="104"/><path fill="#dd6e60" d="M137.6 45.4l7.8-10.4 87 65.6-7.8 10.4z"/><path fill="#e1fff2" d="M115.5 8.9l-13.8 37.6 13.8-12.8-14.3-24.2z"/><ellipse fill="#000016" rx="1" ry="1" transform="rotate(83.2 -3.3 23.3) scale(52.38971 82.19952)"/><ellipse fill="#080100" rx="1" ry="1" transform="matrix(5.71294 19.28656 -36.37505 10.77478 198 155.6)"/><ellipse fill="#000016" cx="223" cy="12" rx="60" ry="60"/></g></svg>