<svg xmlns="http://www.w3.org/2000/svg" viewBox="0 0 800 600"><filter id="b"><feGaussianBlur stdDeviation="12" /></filter><path fill="#6d6259" d="M0 0h800v600H0z"/><g filter="url(#b)" transform="translate(1.6 1.6) scale(3.125)" fill-opacity=".5"><ellipse fill="#ecf5ef" rx="1" ry="1" transform="matrix(52.21048 -33.13863 28.11299 44.2925 33.3 79.6)"/><ellipse rx="1" ry="1" transform="matrix(248.69669 -56.34675 11.57174 51.074 158.8 173.5)"/><ellipse fill="#b7a891" cx="107" cy="51" rx="197" ry="31"/><ellipse fill="#fff" rx="1" ry="1" transform="rotate(-157.9 12.5 43.6) scale(21.82308 36.15027)"/><path fill="#a8a8b6" d="M118 164l37-104-69 86z"/><ellipse fill="#0b0000" cx="212" cy="184" rx="168" ry="27"/><ellipse rx="1" ry="1" transform="rotate(-82.9 161.6 -61.1) scale(39.72963 13.38147)"/><path fill="#622c30" d="M129.5 97.6l2.8-4-93.1-21.2.1 27.8z"/><path fill="#cd8262" d="M269 174L213 33l58-32z"/><ellipse fill="#6d7277" rx="1" ry="1" transform="matrix(8.63226 -43.59608 18.03 3.57004 172.8 123)"/></g></svg>