<svg xmlns="http://www.w3.org/2000/svg" viewBox="0 0 800 600"><filter id="b"><feGaussianBlur stdDeviation="12" /></filter><path fill="#6d6259" d="M0 0h800v600H0z"/><g filter="url(#b)" transform="translate(1.6 1.6) scale(3.125)" fill-opacity=".5"><ellipse fill="#ecf4ef" rx="1" ry="1" transform="rotate(-20 237.7 -56.7) scale(58.31176 55.45486)"/><ellipse rx="1" ry="1" transform="matrix(11.16758 49.60525 -248.77361 56.00616 158.7 172.1)"/><ellipse fill="#b7a993" cx="70" cy="52" rx="245" ry="31"/><path fill="#fff" d="M-3.5 107.5v-49h37v49z"/><ellipse fill="#070000" rx="1" ry="1" transform="matrix(-179.4022 21.46545 -3.09662 -25.88069 174.4 186.4)"/><ellipse fill="#b5adc0" rx="1" ry="1" transform="matrix(11.9096 4.81179 -15.09751 37.36765 118.2 123)"/><ellipse rx="1" ry="1" transform="rotate(-175 103.6 47.8) scale(11.74972 36.96142)"/><ellipse fill="#651d22" rx="1" ry="1" transform="matrix(51.8149 3.5928 -.4848 6.99168 83.6 91.4)"/><ellipse fill="#73777b" rx="1" ry="1" transform="matrix(-17.73242 -1.88172 4.94607 -46.60941 171.1 119.5)"/><path fill="#c78568" d="M234.1 16.6l37.3 139.1-13.5 3.7-37.3-139.1z"/></g></svg>