<svg xmlns="http://www.w3.org/2000/svg" viewBox="0 0 800 600"><filter id="b"><feGaussianBlur stdDeviation="12" /></filter><path fill="#8e7c6b" d="M0 0h800v600H0z"/><g filter="url(#b)" transform="translate(1.6 1.6) scale(3.125)" fill-opacity=".5"><ellipse fill="#fffff2" rx="1" ry="1" transform="rotate(88.5 50.3 62.2) scale(62.84958 114.95212)"/><ellipse fill="#261d1b" rx="1" ry="1" transform="matrix(15.7606 26.14309 -128.38046 77.3953 175.2 124.8)"/><ellipse fill="#390900" rx="1" ry="1" transform="rotate(113.1 -16.1 45.9) scale(26.81048 111.49948)"/><path fill="#fffedf" d="M15.5 174.7l38-35.5 15 16.1-38 35.5z"/><path fill="#eadab7" d="M102 160h49v19h-49z"/><ellipse fill="#fef9e8" cx="53" cy="23" rx="41" ry="33"/><path fill="#fff" d="M212.7 147.6L212 127l55.4 16.8 3.6-5.8z"/><ellipse fill="#382a0a" rx="1" ry="1" transform="matrix(1.21321 -16.92518 24.50123 1.75627 234.7 166.1)"/><ellipse fill="#fff" rx="1" ry="1" transform="matrix(10.16803 12.92126 -32.89947 25.88933 206 6.6)"/><ellipse fill="#3c1608" rx="1" ry="1" transform="matrix(-34.24077 30.72249 -10.28798 -11.46614 22.4 105)"/></g></svg>