<svg xmlns="http://www.w3.org/2000/svg" viewBox="0 0 800 600"><filter id="b"><feGaussianBlur stdDeviation="12" /></filter><path fill="#8e7c6b" d="M0 0h800v600H0z"/><g filter="url(#b)" transform="translate(1.6 1.6) scale(3.125)" fill-opacity=".5"><ellipse fill="#fffff1" cx="111" cy="15" rx="116" ry="57"/><path fill="#381c13" d="M271 68L-16 83l191 92z"/><ellipse fill="#2b0000" cx="10" cy="81" rx="53" ry="30"/><ellipse fill="#000015" rx="1" ry="1" transform="matrix(-11.49456 -11.10017 36.20409 -37.49043 69.6 188.7)"/><path fill="#fff" d="M23.8 159.5L55 137.7l13.2 18.8L37 178.3z"/><ellipse fill="#fdf7e6" cx="54" cy="23" rx="39" ry="40"/><ellipse fill="#3b342a" rx="1" ry="1" transform="rotate(-110.2 151.1 -37.3) scale(33.04404 72.88124)"/><ellipse fill="#bd8e69" rx="1" ry="1" transform="matrix(-15.54696 -14.70203 33.0507 -34.95014 168 69.9)"/><ellipse fill="#392b0c" cx="232" cy="165" rx="24" ry="18"/><path fill="#fff" d="M214 146l39-6-39-12z"/></g></svg>