<svg xmlns="http://www.w3.org/2000/svg" viewBox="0 0 800 600"><filter id="b"><feGaussianBlur stdDeviation="12" /></filter><path fill="#6f6f6f" d="M0 0h800v600H0z"/><g filter="url(#b)" transform="translate(1.6 1.6) scale(3.125)" fill-opacity=".5"><path fill="#ddd" d="M109 119L40 46l205-36z"/><ellipse fill="#060606" rx="1" ry="1" transform="matrix(28.86488 -1.05843 7.58956 206.9785 15.7 63.6)"/><path fill="#fff" d="M15.6 72l25-1 1.8 53-25 1z"/><ellipse cx="255" cy="44" rx="20" ry="98"/><ellipse rx="1" ry="1" transform="rotate(164.2 88.5 86.5) scale(20.99733 54.08014)"/><ellipse fill="#ededed" rx="1" ry="1" transform="matrix(14.2626 -2.49168 14.55197 83.29673 240.6 169.2)"/><ellipse fill="#292929" rx="1" ry="1" transform="matrix(-11.67197 21.76812 -29.53434 -15.83617 115.6 31.8)"/><ellipse fill="#dadada" rx="1" ry="1" transform="rotate(175.7 29.7 16.2) scale(19.39164 44.44443)"/><path fill="#f0f0f0" d="M67 156l-6-99 26 63z"/><path fill="#fff" d="M175 29l59 35-86 1z"/></g></svg>