<svg xmlns="http://www.w3.org/2000/svg" viewBox="0 0 800 600"><filter id="b"><feGaussianBlur stdDeviation="12" /></filter><path fill="#6f6f6f" d="M0 0h800v600H0z"/><g filter="url(#b)" transform="translate(1.6 1.6) scale(3.125)" fill-opacity=".5"><path fill="#d4d4d4" d="M209 87l9-103L26 126z"/><ellipse fill="#0e0e0e" rx="1" ry="1" transform="matrix(51.92663 -12.15648 51.2745 219.01994 0 82.7)"/><ellipse fill="#f2f2f2" rx="1" ry="1" transform="matrix(18.14062 -14.85677 27.8638 34.02264 73.7 51)"/><ellipse cx="255" cy="44" rx="19" ry="101"/><ellipse rx="1" ry="1" transform="matrix(-14.2707 -52.16489 21.10205 -5.77287 198.1 146.6)"/><ellipse fill="#f9f9f9" rx="1" ry="1" transform="matrix(-1.63097 -28.83905 13.37457 -.75639 27.8 98.5)"/><ellipse fill="#fff" rx="1" ry="1" transform="rotate(-94.8 192 -27.5) scale(86.92581 9.9311)"/><ellipse fill="#fff" cx="160" cy="120" rx="7" ry="37"/><ellipse cx="7" cy="11" rx="35" ry="52"/><ellipse fill="#fff" cx="115" rx="51" ry="6"/></g></svg>