<svg xmlns="http://www.w3.org/2000/svg" viewBox="0 0 800 600"><filter id="b"><feGaussianBlur stdDeviation="12" /></filter><path fill="#7a7a78" d="M0 0h800v600H0z"/><g filter="url(#b)" transform="translate(1.6 1.6) scale(3.125)" fill-opacity=".5"><ellipse rx="1" ry="1" transform="matrix(31.17511 -7.14005 11.16771 48.7608 84.6 168.3)"/><ellipse fill="#d5bbb2" rx="1" ry="1" transform="matrix(-41.91159 -67.70076 40.67204 -25.17889 158.8 55.7)"/><ellipse fill="#001e38" rx="1" ry="1" transform="matrix(20.42275 -21.98703 43.97614 40.84742 20.5 41.7)"/><path fill="#f4ffff" d="M91-3l2 53-47-40z"/><ellipse fill="#cd9a9f" cx="150" cy="168" rx="35" ry="40"/><ellipse fill="#000505" rx="1" ry="1" transform="rotate(-118.6 94 55.7) scale(56.70763 17.83043)"/><path fill="#13382b" d="M123.1-14.2l32.3-6.8 7.5 35.2-32.3 6.8z"/><path d="M8 207V103l-24 19z"/><ellipse fill="#0f2b3e" rx="1" ry="1" transform="rotate(-58.5 146.7 -35.1) scale(6.21196 58.08478)"/><ellipse fill="#d2e5e9" rx="1" ry="1" transform="rotate(-5 477.8 -1338.2) scale(12.5774 44.56334)"/></g></svg>