<svg xmlns="http://www.w3.org/2000/svg" viewBox="0 0 800 600"><filter id="b"><feGaussianBlur stdDeviation="12" /></filter><path fill="#7a7a78" d="M0 0h800v600H0z"/><g filter="url(#b)" transform="translate(1.6 1.6) scale(3.125)" fill-opacity=".5"><ellipse rx="1" ry="1" transform="rotate(71.8 -72.8 143.6) scale(55.14585 28.69622)"/><ellipse fill="#cbb8b1" rx="1" ry="1" transform="matrix(36.5782 -33.15869 88.9565 98.13022 134.3 32)"/><ellipse fill="#00233c" rx="1" ry="1" transform="matrix(-19.01611 22.32632 -81.84931 -69.71395 0 24.8)"/><ellipse fill="#cb9b9f" rx="1" ry="1" transform="matrix(21.12869 -41.36215 26.91906 13.75084 150.1 164.3)"/><path fill="#000008" d="M91 5h10v44H91z"/><ellipse cx="2" cy="147" rx="8" ry="46"/><ellipse fill="#070b0a" cx="84" cy="170" rx="33" ry="41"/><ellipse fill="#9bb3bd" rx="1" ry="1" transform="rotate(33.2 -81 145.9) scale(30.73871 10.95631)"/><path fill="#f9ffff" d="M63 22l24 25 3-63z"/><ellipse fill="#193b2d" cx="146" cy="7" rx="19" ry="11"/></g></svg>