<svg xmlns="http://www.w3.org/2000/svg" viewBox="0 0 800 600"><filter id="b"><feGaussianBlur stdDeviation="12" /></filter><path fill="#4e4e4e" d="M0 0h800v600H0z"/><g filter="url(#b)" transform="translate(1.6 1.6) scale(3.125)" fill-opacity=".5"><ellipse fill="#fff" rx="1" ry="1" transform="matrix(79.81176 .6965 -.12314 14.1106 170.3 10.3)"/><path fill="#fff" d="M126 48l63.3-14.5 4.7 20.4-63.3 14.6z"/><ellipse rx="1" ry="1" transform="rotate(86.8 -82.6 91.5) scale(88.82034 34.21178)"/><path d="M148 70l-3 76 126-65z"/><ellipse fill="#dadada" cx="131" cy="104" rx="13" ry="23"/><ellipse fill="#fcfcfc" cx="55" cy="68" rx="9" ry="18"/><ellipse fill="#fff" rx="1" ry="1" transform="matrix(-10.20846 -4.9632 4.16803 -8.57295 90.1 39.3)"/><ellipse fill="#898989" rx="1" ry="1" transform="matrix(10.15007 -25.12232 46.39965 18.74667 89.5 171)"/><ellipse fill="#161616" rx="1" ry="1" transform="rotate(-91.8 93 -.8) scale(50.58879 25.57007)"/><ellipse fill="#b3b3b3" cx="15" cy="22" rx="20" ry="20"/></g></svg>