<svg xmlns="http://www.w3.org/2000/svg" viewBox="0 0 800 600"><filter id="b"><feGaussianBlur stdDeviation="12" /></filter><path fill="#4e4e4e" d="M0 0h800v600H0z"/><g filter="url(#b)" transform="translate(1.6 1.6) scale(3.125)" fill-opacity=".5"><ellipse fill="#fff" cx="154" cy="7" rx="78" ry="16"/><ellipse fill="#fff" rx="1" ry="1" transform="matrix(2.07303 10.93772 -36.30584 6.88106 165.8 48.5)"/><ellipse rx="1" ry="1" transform="matrix(-8.38286 -82.75607 25.8481 -2.61831 20.5 163.6)"/><ellipse fill="#0d0d0d" rx="1" ry="1" transform="matrix(56.94386 -27.77338 15.25845 31.28446 201.5 92.5)"/><path fill="#eaeaea" d="M83 45.8l-15-29L87 3l16.4 49.5z"/><ellipse fill="#d8d8d8" cx="131" cy="103" rx="13" ry="23"/><path fill="#fff" d="M49 52h14v30H49z"/><ellipse fill="#c7c7c7" rx="1" ry="1" transform="matrix(16.62533 -14.20313 8.50288 9.95295 15.3 23.7)"/><ellipse fill="#050505" cx="94" cy="75" rx="30" ry="27"/><ellipse fill="#8c8c8c" rx="1" ry="1" transform="rotate(12.5 -726.8 506) scale(48.23688 26.24405)"/></g></svg>