<svg xmlns="http://www.w3.org/2000/svg" viewBox="0 0 800 600"><filter id="b"><feGaussianBlur stdDeviation="12" /></filter><path fill="#e0e0e0" d="M0 0h800v600H0z"/><g filter="url(#b)" transform="translate(1.6 1.6) scale(3.125)" fill-opacity=".5"><ellipse fill="#b4b4b4" rx="1" ry="1" transform="rotate(-90.3 116 -11.7) scale(33.74331 46.51378)"/><ellipse fill="#f9f9f9" cx="127" cy="97" rx="17" ry="17"/><path fill="#a4a4a4" d="M89 115h81v17H89z"/><path fill="#e9e9e9" d="M0 132h256v60H0z"/><ellipse fill="#e7e7e7" cx="46" cy="93" rx="39" ry="255"/><ellipse fill="#e8e8e8" rx="1" ry="1" transform="matrix(202.03386 155.58702 -33.78657 43.87275 193.2 23.8)"/><path fill="#cfcfcf" d="M84.3 86.7l.4-21 87 1.6-.4 21z"/><path fill="#b6b6b6" d="M85 81l2 46 40-5z"/><path fill="#e5e5e5" d="M171 68h75v124h-75z"/><path fill="#b5b5b5" d="M157 132.8l-36-8.2 49.6-33.3-.9 35.2z"/></g></svg>