<svg xmlns="http://www.w3.org/2000/svg" viewBox="0 0 800 600"><filter id="b"><feGaussianBlur stdDeviation="12" /></filter><path fill="#e0e0e0" d="M0 0h800v600H0z"/><g filter="url(#b)" transform="translate(1.6 1.6) scale(3.125)" fill-opacity=".5"><ellipse fill="#b5b5b5" rx="1" ry="1" transform="matrix(47.5959 -1.78535 1.22374 32.624 130 106)"/><ellipse fill="#a1a1a1" cx="126" cy="124" rx="44" ry="8"/><ellipse fill="#fbfbfb" rx="1" ry="1" transform="matrix(-10.9941 -13.2008 11.30104 -9.41192 127 100.8)"/><ellipse fill="#e9e9e9" cx="114" cy="164" rx="255" ry="33"/><ellipse fill="#e7e7e7" cx="24" cy="80" rx="61" ry="252"/><path fill="#cecece" d="M79 89l22-37 83 25z"/><path fill="#e8e8e8" d="M172 0h84v142h-84z"/><ellipse fill="#b2b2b2" rx="1" ry="1" transform="matrix(-2.80001 -17.67856 13.89204 -2.20028 156.2 114.6)"/><ellipse fill="#b4b4b4" rx="1" ry="1" transform="matrix(-13.74632 -15.36205 10.27433 -9.1937 102 114.7)"/><ellipse fill="#e8e8e8" rx="1" ry="1" transform="matrix(-12.81778 33.52954 -54.64455 -20.8897 137.3 28)"/></g></svg>